<svg width="131" height="36" viewBox="0 0 131 36" fill="none" xmlns="http://www.w3.org/2000/svg">
<path d="M8.23088 28.664H18.9829V35H0.0228751V1.304H8.23088V28.664ZM38.8339 35.336C35.6659 35.336 32.7539 34.6 30.0979 33.128C27.4739 31.656 25.3779 29.608 23.8099 26.984C22.2739 24.328 21.5059 21.352 21.5059 18.056C21.5059 14.76 22.2739 11.8 23.8099 9.176C25.3779 6.552 27.4739 4.504 30.0979 3.032C32.7539 1.56 35.6659 0.823999 38.8339 0.823999C42.0019 0.823999 44.8979 1.56 47.5219 3.032C50.1779 4.504 52.2579 6.552 53.7619 9.176C55.2979 11.8 56.0659 14.76 56.0659 18.056C56.0659 21.352 55.2979 24.328 53.7619 26.984C52.2259 29.608 50.1459 31.656 47.5219 33.128C44.8979 34.6 42.0019 35.336 38.8339 35.336ZM38.8339 27.848C41.5219 27.848 43.6659 26.952 45.2659 25.16C46.8979 23.368 47.7139 21 47.7139 18.056C47.7139 15.08 46.8979 12.712 45.2659 10.952C43.6659 9.16 41.5219 8.264 38.8339 8.264C36.1139 8.264 33.9379 9.144 32.3059 10.904C30.7059 12.664 29.9059 15.048 29.9059 18.056C29.9059 21.032 30.7059 23.416 32.3059 25.208C33.9379 26.968 36.1139 27.848 38.8339 27.848ZM83.0002 11.96C82.3923 10.84 81.5123 9.992 80.3603 9.416C79.2403 8.808 77.9123 8.504 76.3763 8.504C73.7203 8.504 71.5923 9.384 69.9922 11.144C68.3923 12.872 67.5923 15.192 67.5923 18.104C67.5923 21.208 68.4243 23.64 70.0883 25.4C71.7843 27.128 74.1043 27.992 77.0483 27.992C79.0643 27.992 80.7603 27.48 82.1363 26.456C83.5443 25.432 84.5683 23.96 85.2083 22.04H74.7923V15.992H92.6483V23.624C92.0403 25.672 91.0003 27.576 89.5283 29.336C88.0883 31.096 86.2483 32.52 84.0083 33.608C81.7683 34.696 79.2403 35.24 76.4243 35.24C73.0963 35.24 70.1203 34.52 67.4963 33.08C64.9043 31.608 62.8723 29.576 61.4003 26.984C59.9603 24.392 59.2402 21.432 59.2402 18.104C59.2402 14.776 59.9603 11.816 61.4003 9.224C62.8723 6.6 64.9043 4.568 67.4963 3.128C70.0883 1.656 73.0483 0.919998 76.3763 0.919998C80.4083 0.919998 83.8003 1.896 86.5523 3.848C89.3363 5.8 91.1763 8.504 92.0723 11.96H83.0002ZM113.131 35.336C109.963 35.336 107.051 34.6 104.395 33.128C101.771 31.656 99.6748 29.608 98.1068 26.984C96.5707 24.328 95.8027 21.352 95.8027 18.056C95.8027 14.76 96.5707 11.8 98.1068 9.176C99.6748 6.552 101.771 4.504 104.395 3.032C107.051 1.56 109.963 0.823999 113.131 0.823999C116.299 0.823999 119.195 1.56 121.819 3.032C124.475 4.504 126.555 6.552 128.059 9.176C129.595 11.8 130.363 14.76 130.363 18.056C130.363 21.352 129.595 24.328 128.059 26.984C126.523 29.608 124.443 31.656 121.819 33.128C119.195 34.6 116.299 35.336 113.131 35.336ZM113.131 27.848C115.819 27.848 117.963 26.952 119.563 25.16C121.195 23.368 122.011 21 122.011 18.056C122.011 15.08 121.195 12.712 119.563 10.952C117.963 9.16 115.819 8.264 113.131 8.264C110.411 8.264 108.235 9.144 106.603 10.904C105.003 12.664 104.203 15.048 104.203 18.056C104.203 21.032 105.003 23.416 106.603 25.208C108.235 26.968 110.411 27.848 113.131 27.848Z" fill="#42446E"/>
</svg>
